<svg width="142" height="41" viewBox="0 0 142 41" fill="none" xmlns="http://www.w3.org/2000/svg">
<path d="M0 0H142V41H0V0Z" fill="#00094A"/>
<path fill-rule="evenodd" clip-rule="evenodd" d="M13.7606 18.0421L15.4157 19.715C15.8956 20.2001 15.8956 20.9941 15.4157 21.4792L13.7606 23.1522C13.2806 23.6373 12.495 23.6373 12.0151 23.1522L10.36 21.4792C9.88001 20.9941 9.88001 20.2001 10.36 19.715L12.0151 18.0421C12.495 17.5569 13.2795 17.5569 13.7606 18.0421Z" fill="#06A39C"/>
<path fill-rule="evenodd" clip-rule="evenodd" d="M13.7606 27.7631L15.4157 29.436C15.8956 29.9211 15.8956 30.7152 15.4157 31.2003L13.7606 32.8732C13.2806 33.3583 12.495 33.3583 12.0151 32.8732L10.36 31.2003C9.88001 30.7152 9.88001 29.9211 10.36 29.436L12.0151 27.7631C12.495 27.2769 13.2795 27.2769 13.7606 27.7631Z" fill="#06A39C"/>
<path fill-rule="evenodd" clip-rule="evenodd" d="M23.3779 8.3199L25.033 9.9928C25.513 10.4779 25.513 11.272 25.033 11.7571L23.3779 13.43C22.8979 13.9151 22.1123 13.9151 21.6324 13.43L19.9773 11.7571C19.4973 11.272 19.4973 10.4779 19.9773 9.9928L21.6324 8.3199C22.1134 7.83477 22.8979 7.83477 23.3779 8.3199Z" fill="#30D2A3"/>
<path fill-rule="evenodd" clip-rule="evenodd" d="M23.3778 18.0421L25.0329 19.715C25.5128 20.2001 25.5128 20.9941 25.0329 21.4792L23.3778 23.1522C22.8978 23.6373 22.1122 23.6373 21.6323 23.1522L19.9772 21.4792C19.4972 20.9941 19.4972 20.2001 19.9772 19.715L21.6323 18.0421C22.1133 17.5569 22.8978 17.5569 23.3778 18.0421Z" fill="#30D2A3"/>
<path fill-rule="evenodd" clip-rule="evenodd" d="M23.3778 27.7631L25.0329 29.436C25.5128 29.9211 25.5128 30.7152 25.0329 31.2003L23.3778 32.8732C22.8978 33.3583 22.1122 33.3583 21.6323 32.8732L19.9772 31.2003C19.4972 30.7152 19.4972 29.9211 19.9772 29.436L21.6323 27.7631C22.1133 27.2769 22.8978 27.2769 23.3778 27.7631Z" fill="#06A39C"/>
<path fill-rule="evenodd" clip-rule="evenodd" d="M32.9968 8.3199L34.6519 9.9928C35.1319 10.4779 35.1319 11.272 34.6519 11.7571L32.9968 13.43C32.5169 13.9151 31.7313 13.9151 31.2513 13.43L29.5962 11.7571C29.1162 11.272 29.1162 10.4779 29.5962 9.9928L31.2513 8.3199C31.7313 7.83477 32.5169 7.83477 32.9968 8.3199Z" fill="#30D2A3"/>
<path fill-rule="evenodd" clip-rule="evenodd" d="M32.9969 18.0421L34.652 19.715C35.132 20.2001 35.132 20.9941 34.652 21.4792L32.9969 23.1522C32.5169 23.6373 31.7314 23.6373 31.2514 23.1522L29.5963 21.4792C29.1163 20.9941 29.1163 20.2001 29.5963 19.715L31.2514 18.0421C31.7314 17.5569 32.5169 17.5569 32.9969 18.0421Z" fill="#30D2A3"/>
<path fill-rule="evenodd" clip-rule="evenodd" d="M32.9969 27.7631L34.652 29.436C35.132 29.9211 35.132 30.7152 34.652 31.2003L32.9969 32.8732C32.5169 33.3583 31.7314 33.3583 31.2514 32.8732L29.5963 31.2003C29.1163 30.7152 29.1163 29.9211 29.5963 29.436L31.2514 27.7631C31.7314 27.2769 32.5169 27.2769 32.9969 27.7631Z" fill="#06A39C"/>
<path fill-rule="evenodd" clip-rule="evenodd" d="M13.7606 8.3199L15.4157 9.9928C15.8956 10.4779 15.8956 11.272 15.4157 11.7571L13.7606 13.43C13.2806 13.9151 12.495 13.9151 12.0151 13.43L10.36 11.7571C9.88001 11.272 9.88001 10.4779 10.36 9.9928L12.0151 8.3199C12.495 7.83477 13.2795 7.83477 13.7606 8.3199Z" fill="#30D2A3"/>
<path fill-rule="evenodd" clip-rule="evenodd" d="M49.4292 20.6374L49.9953 22.0786C50.0631 22.2613 50.1987 22.3299 50.3795 22.2613L51.9862 21.7349C52.2347 21.6664 52.2573 21.4608 52.1895 21.277L51.8958 20.3165C51.6472 19.4931 51.602 18.6469 51.602 17.7321V13.7522C51.602 10.6641 49.1807 9.45241 46.5107 9.45241C44.2476 9.45241 42.7098 10.0702 41.1935 11.1906C41.0353 11.3048 40.9901 11.5332 41.1483 11.717L42.0308 12.9744C42.1438 13.1343 42.3924 13.1572 42.5742 13.043C43.8419 12.2424 44.8599 11.9455 46.5118 11.9455C47.8699 11.9455 48.9783 12.3805 48.9783 13.4552V13.7293L44.9955 14.2558C42.2126 14.6212 40.5608 16.0853 40.5608 18.3956C40.5608 20.7288 42.3708 22.2842 44.9729 22.2842C46.783 22.2842 48.2089 21.7121 49.3173 20.6374H49.4292ZM48.9762 18.053C48.1842 19.1276 46.9627 19.7912 45.2431 19.7912C43.8172 19.7912 43.1844 19.1962 43.1844 18.2586C43.1844 17.458 43.7504 16.8402 44.9945 16.6346L48.9773 15.9711V18.053H48.9762ZM54.8143 6C54.6109 6 54.4979 6.11421 54.4979 6.31979V21.7806C54.4979 21.9862 54.6109 22.1004 54.8143 22.1004H56.3531C56.5339 22.1004 56.6469 22.009 56.6921 21.8263L56.8729 21.0029L57.0311 20.98C57.9587 21.8948 59.2942 22.2842 60.6738 22.2842C64.294 22.2842 67.0328 19.6998 67.0328 15.858C67.0328 12.0162 64.3629 9.45459 60.6738 9.45459C59.3158 9.45459 58.1847 9.79722 57.1215 10.6891V6.32088C57.1215 6.1153 57.0085 6.00109 56.8051 6.00109L54.8143 6ZM57.1226 13.4563C58.0954 12.4502 59.0682 11.9694 60.6749 11.9694C62.8251 11.9694 64.4307 13.4791 64.4307 15.858C64.4307 18.2596 62.824 19.7694 60.6749 19.7694C59.1586 19.7694 58.0954 19.2886 57.1226 18.214V13.4563ZM69.1603 9.63623C68.9569 9.63623 68.8439 9.75044 68.8439 9.95602V16.8173C68.8439 20.6135 70.9026 22.2831 73.9803 22.2831C75.3384 22.2831 76.5825 21.8948 77.6457 20.9104H77.7813L77.9847 21.8252C78.0299 22.0079 78.1429 22.0993 78.3462 22.0993H79.9529C80.1563 22.0993 80.2693 21.9851 80.2693 21.7795V9.95711C80.2693 9.75153 80.1563 9.63732 79.9529 9.63732H77.9621C77.7587 9.63732 77.6457 9.75153 77.6457 9.95711V18.1683C76.831 19.2429 75.5181 19.7694 74.2515 19.7694C72.3511 19.7694 71.4686 18.8318 71.4686 16.6585V9.95711C71.4686 9.75153 71.3556 9.63732 71.1522 9.63732H69.1603V9.63623ZM83.9357 9.68192L82.4646 9.81897C82.2838 9.84182 82.1935 9.95602 82.1935 10.1159V11.7856C82.1935 11.9911 82.3064 12.1053 82.5098 12.1053H83.9131V18.0976C83.9131 20.5449 85.0893 22.2831 87.8055 22.2831C88.9592 22.2831 89.819 22.0318 90.6562 21.4825C90.8596 21.3683 90.9048 21.2313 90.8144 21.0246L90.2032 19.5606C90.1354 19.4007 89.9998 19.3093 89.7501 19.4235C89.2745 19.6748 88.7321 19.789 88.1208 19.789C87.148 19.789 86.5368 19.194 86.5368 18.028V12.1043H89.8857C90.0891 12.1043 90.2021 11.99 90.2021 11.7845V9.95494C90.2021 9.74936 90.0891 9.63515 89.8857 9.63515H86.5368V7.21063C86.5368 7.00505 86.3786 6.89084 86.2204 6.89084H84.5018C84.321 6.89084 84.208 7.00505 84.1854 7.21063L83.9357 9.68192ZM102.853 18.5109C102.74 18.3739 102.605 18.3739 102.492 18.4881C101.315 19.4714 100.093 19.7922 98.554 19.7922C96.5632 19.7922 95.1599 18.6947 94.7294 17.1165H104.414C104.594 17.1165 104.685 17.0022 104.685 16.7967V15.8819C104.685 12.1543 102.105 9.45459 98.44 9.45459C94.752 9.45459 91.9906 12.1532 91.9906 15.8819C91.9906 19.5638 94.6832 22.2853 98.553 22.2853C100.363 22.2853 102.286 21.7588 103.915 20.3644C104.028 20.2502 104.051 20.1131 103.938 19.9989L102.853 18.5109ZM98.44 11.9465C100.227 11.9465 101.834 13.0441 102.015 14.6452H94.7057C95.0684 13.0669 96.6073 11.9465 98.44 11.9465ZM112.876 9.4535C109.256 9.4535 106.495 12.1521 106.495 15.834C106.495 19.516 109.255 22.2842 112.876 22.2842C115.14 22.2842 117.108 21.2781 118.261 19.3571C118.352 19.2429 118.329 19.1059 118.216 18.9917L116.79 17.8485C116.655 17.7343 116.542 17.7343 116.429 17.8485C115.501 19.2212 114.415 19.7694 112.876 19.7694C110.636 19.7694 109.121 18.0998 109.121 15.8351C109.121 13.5705 110.614 11.9694 112.876 11.9694C114.415 11.9694 115.433 12.5415 116.361 13.8218C116.451 13.936 116.632 14.0273 116.79 13.8674L118.216 12.7699C118.329 12.6786 118.352 12.5644 118.261 12.4045C117.177 10.5282 115.004 9.4535 112.876 9.4535ZM120.797 6C120.593 6 120.48 6.11421 120.48 6.31979V21.7806C120.48 21.9862 120.593 22.1004 120.797 22.1004H122.788C122.991 22.1004 123.104 21.9862 123.104 21.7806V13.4106C124.009 12.4045 125.072 11.9694 126.408 11.9694C128.218 11.9694 129.281 13.0212 129.281 15.2173V21.7817C129.281 21.9872 129.394 22.1015 129.597 22.1015H131.588C131.792 22.1015 131.905 21.9872 131.905 21.7817V15.1259C131.905 11.3755 129.596 9.4535 126.407 9.4535C125.139 9.4535 124.031 9.81897 123.103 10.7109V6.31979C123.103 6.11421 122.99 6 122.787 6H120.797Z" fill="white"/>
<path d="M42.7316 33.4387C42.3859 33.4387 42.0534 33.3916 41.7342 33.2975C41.415 33.1978 41.165 33.0732 40.9841 32.9238L41.3033 32.2926C41.4895 32.431 41.7156 32.5417 41.9816 32.6248C42.2475 32.7078 42.5162 32.7494 42.7875 32.7494C43.4578 32.7494 43.7929 32.55 43.7929 32.1514C43.7929 32.0185 43.7477 31.9133 43.6573 31.8358C43.5668 31.7583 43.4525 31.7029 43.3142 31.6697C43.1812 31.631 42.9896 31.5894 42.7396 31.5451C42.3992 31.4898 42.1199 31.4261 41.9018 31.3541C41.689 31.2822 41.5054 31.1603 41.3512 30.9887C41.1969 30.8171 41.1198 30.5762 41.1198 30.2662C41.1198 29.8675 41.2793 29.5492 41.5985 29.3111C41.9177 29.0675 42.346 28.9457 42.8833 28.9457C43.1652 28.9457 43.4471 28.9817 43.7291 29.0537C44.011 29.1256 44.2425 29.2225 44.4233 29.3443L44.0962 29.9755C43.7504 29.743 43.3434 29.6267 42.8753 29.6267C42.5508 29.6267 42.3034 29.6821 42.1332 29.7928C41.9629 29.9035 41.8778 30.0503 41.8778 30.233C41.8778 30.3769 41.9257 30.4904 42.0215 30.5735C42.1172 30.6565 42.2342 30.7174 42.3726 30.7562C42.5162 30.7949 42.7157 30.8392 42.971 30.8891C43.3115 30.95 43.5855 31.0164 43.7929 31.0884C44.0057 31.1548 44.1866 31.2711 44.3355 31.4372C44.4845 31.6033 44.559 31.8358 44.559 32.1348C44.559 32.5334 44.3941 32.8518 44.0642 33.0899C43.7397 33.3224 43.2955 33.4387 42.7316 33.4387Z" fill="white"/>
<path d="M47.3277 33.4387C46.9075 33.4387 46.5298 33.3418 46.1946 33.148C45.8595 32.9542 45.5961 32.6885 45.4046 32.3507C45.2184 32.0074 45.1253 31.6199 45.1253 31.188C45.1253 30.7562 45.2184 30.3714 45.4046 30.0336C45.5961 29.6904 45.8595 29.4246 46.1946 29.2364C46.5298 29.0426 46.9075 28.9457 47.3277 28.9457C47.748 28.9457 48.123 29.0426 48.4529 29.2364C48.788 29.4246 49.0487 29.6904 49.2349 30.0336C49.4264 30.3714 49.5221 30.7562 49.5221 31.188C49.5221 31.6199 49.4264 32.0074 49.2349 32.3507C49.0487 32.6885 48.788 32.9542 48.4529 33.148C48.123 33.3418 47.748 33.4387 47.3277 33.4387ZM47.3277 32.7411C47.599 32.7411 47.8411 32.6774 48.0539 32.55C48.272 32.4172 48.4422 32.2345 48.5646 32.0019C48.6869 31.7638 48.7481 31.4925 48.7481 31.188C48.7481 30.8835 48.6869 30.615 48.5646 30.3825C48.4422 30.1444 48.272 29.9617 48.0539 29.8343C47.8411 29.707 47.599 29.6433 47.3277 29.6433C47.0564 29.6433 46.8117 29.707 46.5936 29.8343C46.3808 29.9617 46.2106 30.1444 46.0829 30.3825C45.9605 30.615 45.8994 30.8835 45.8994 31.188C45.8994 31.4925 45.9605 31.7638 46.0829 32.0019C46.2106 32.2345 46.3808 32.4172 46.5936 32.55C46.8117 32.6774 47.0564 32.7411 47.3277 32.7411Z" fill="white"/>
<path d="M52.1296 27.8328C51.6721 27.8328 51.4433 28.0903 51.4433 28.6052V28.9872H52.6722V29.6433H51.4593V33.3888H50.6933V29.6433H49.9751V28.9872H50.6933V28.5969C50.6933 28.1595 50.8156 27.8135 51.0603 27.5588C51.305 27.3041 51.6482 27.1768 52.0897 27.1768C52.2599 27.1768 52.4195 27.1989 52.5685 27.2432C52.7174 27.2875 52.8451 27.3512 52.9515 27.4342L52.7201 28.0405C52.5445 27.9021 52.3477 27.8328 52.1296 27.8328Z" fill="white"/>
<path d="M55.7726 33.1314C55.6609 33.231 55.5226 33.3086 55.3577 33.3639C55.1928 33.4137 55.0225 33.4387 54.847 33.4387C54.4214 33.4387 54.0916 33.3196 53.8575 33.0816C53.6234 32.8435 53.5064 32.503 53.5064 32.06V29.6433H52.7882V28.9872H53.5064V28.0239H54.2724V28.9872H55.4853V29.6433H54.2724V32.0268C54.2724 32.2649 54.3283 32.4476 54.44 32.575C54.557 32.7023 54.722 32.766 54.9348 32.766C55.1688 32.766 55.3683 32.6968 55.5332 32.5583L55.7726 33.1314Z" fill="white"/>
<path d="M63.0205 28.9872L61.4405 33.3888H60.7064L59.4855 30.0503L58.2487 33.3888H57.5145L55.9426 28.9872H56.6687L57.8976 32.4919L59.1743 28.9872H59.8207L61.0735 32.5085L62.3342 28.9872H63.0205Z" fill="white"/>
<path d="M65.2054 28.9457C65.7906 28.9457 66.2375 29.0952 66.546 29.3942C66.8599 29.6931 67.0168 30.1388 67.0168 30.7313V33.3888H66.2906V32.8075C66.163 33.0123 65.9794 33.1701 65.7401 33.2809C65.506 33.3861 65.2267 33.4387 64.9022 33.4387C64.4287 33.4387 64.0484 33.3196 63.7611 33.0816C63.4792 32.8435 63.3382 32.5307 63.3382 32.1431C63.3382 31.7555 63.4738 31.4455 63.7451 31.2129C64.0165 30.9749 64.4474 30.8558 65.0378 30.8558H66.2508V30.698C66.2508 30.3548 66.155 30.0918 65.9635 29.9091C65.772 29.7264 65.49 29.635 65.1176 29.635C64.8676 29.635 64.6229 29.6793 64.3835 29.7679C64.1441 29.8509 63.942 29.9644 63.7771 30.1084L63.4579 29.5104C63.676 29.3277 63.9367 29.1893 64.2399 29.0952C64.5431 28.9955 64.865 28.9457 65.2054 28.9457ZM65.0299 32.8241C65.3225 32.8241 65.5751 32.7577 65.7879 32.6248C66.0007 32.4864 66.155 32.2926 66.2508 32.0434V31.4289H65.0698C64.4208 31.4289 64.0963 31.6559 64.0963 32.1099C64.0963 32.3313 64.1787 32.5057 64.3436 32.6331C64.5085 32.7604 64.7373 32.8241 65.0299 32.8241Z" fill="white"/>
<path d="M69.1686 29.7264C69.3015 29.4717 69.4984 29.2779 69.759 29.145C70.0197 29.0121 70.3362 28.9457 70.7086 28.9457V29.7181C70.6661 29.7125 70.6076 29.7098 70.5331 29.7098C70.1181 29.7098 69.791 29.8399 69.5516 30.1001C69.3175 30.3548 69.2005 30.7202 69.2005 31.1963V33.3888H68.4344V28.9872H69.1686V29.7264Z" fill="white"/>
<path d="M75.4361 31.2129C75.4361 31.2738 75.4307 31.3541 75.4201 31.4538H71.9889C72.0367 31.8414 72.199 32.1542 72.4756 32.3922C72.7576 32.6248 73.106 32.7411 73.521 32.7411C74.0263 32.7411 74.4333 32.5639 74.7418 32.2095L75.1648 32.7244C74.9732 32.957 74.7339 33.1341 74.4466 33.256C74.1646 33.3778 73.8481 33.4387 73.497 33.4387C73.0502 33.4387 72.6538 33.3445 72.308 33.1563C71.9623 32.9625 71.6936 32.694 71.5021 32.3507C71.3159 32.0074 71.2228 31.6199 71.2228 31.188C71.2228 30.7617 71.3132 30.3769 71.4941 30.0336C71.6803 29.6904 71.933 29.4246 72.2522 29.2364C72.5767 29.0426 72.9411 28.9457 73.3454 28.9457C73.7497 28.9457 74.1088 29.0426 74.4226 29.2364C74.7418 29.4246 74.9892 29.6904 75.1648 30.0336C75.3456 30.3769 75.4361 30.77 75.4361 31.2129ZM73.3454 29.6184C72.9783 29.6184 72.6698 29.7347 72.4198 29.9672C72.1751 30.1997 72.0314 30.5043 71.9889 30.8807H74.7019C74.6594 30.5098 74.5131 30.2081 74.2631 29.9755C74.0183 29.7374 73.7125 29.6184 73.3454 29.6184Z" fill="white"/>
<path d="M82.6326 27.2266V33.3888H81.8984V32.6912C81.7282 32.9348 81.5128 33.1203 81.2521 33.2476C80.9914 33.375 80.7042 33.4387 80.3903 33.4387C79.9807 33.4387 79.6136 33.3445 79.2891 33.1563C78.9646 32.9681 78.7093 32.7051 78.5231 32.3673C78.3422 32.0241 78.2518 31.631 78.2518 31.188C78.2518 30.7451 78.3422 30.3548 78.5231 30.017C78.7093 29.6793 78.9646 29.4163 79.2891 29.2281C79.6136 29.0398 79.9807 28.9457 80.3903 28.9457C80.6935 28.9457 80.9728 29.0066 81.2282 29.1284C81.4835 29.2447 81.6963 29.4191 81.8665 29.6516V27.2266H82.6326ZM80.4541 32.7411C80.7201 32.7411 80.9622 32.6774 81.1803 32.55C81.3984 32.4172 81.5686 32.2345 81.691 32.0019C81.8133 31.7638 81.8745 31.4925 81.8745 31.188C81.8745 30.8835 81.8133 30.615 81.691 30.3825C81.5686 30.1444 81.3984 29.9617 81.1803 29.8343C80.9622 29.707 80.7201 29.6433 80.4541 29.6433C80.1828 29.6433 79.9381 29.707 79.72 29.8343C79.5072 29.9617 79.337 30.1444 79.2093 30.3825C79.087 30.615 79.0258 30.8835 79.0258 31.188C79.0258 31.4925 79.087 31.7638 79.2093 32.0019C79.337 32.2345 79.5072 32.4172 79.72 32.55C79.9381 32.6774 80.1828 32.7411 80.4541 32.7411Z" fill="white"/>
<path d="M87.9042 31.2129C87.9042 31.2738 87.8989 31.3541 87.8883 31.4538H84.457C84.5049 31.8414 84.6672 32.1542 84.9438 32.3922C85.2257 32.6248 85.5742 32.7411 85.9891 32.7411C86.4945 32.7411 86.9015 32.5639 87.21 32.2095L87.6329 32.7244C87.4414 32.957 87.202 33.1341 86.9148 33.256C86.6328 33.3778 86.3163 33.4387 85.9652 33.4387C85.5183 33.4387 85.122 33.3445 84.7762 33.1563C84.4304 32.9625 84.1618 32.694 83.9703 32.3507C83.7841 32.0074 83.691 31.6199 83.691 31.188C83.691 30.7617 83.7814 30.3769 83.9623 30.0336C84.1485 29.6904 84.4012 29.4246 84.7204 29.2364C85.0449 29.0426 85.4093 28.9457 85.8136 28.9457C86.2179 28.9457 86.577 29.0426 86.8908 29.2364C87.21 29.4246 87.4574 29.6904 87.6329 30.0336C87.8138 30.3769 87.9042 30.77 87.9042 31.2129ZM85.8136 29.6184C85.4465 29.6184 85.138 29.7347 84.8879 29.9672C84.6432 30.1997 84.4996 30.5043 84.457 30.8807H87.1701C87.1276 30.5098 86.9813 30.2081 86.7312 29.9755C86.4865 29.7374 86.1806 29.6184 85.8136 29.6184Z" fill="white"/>
<path d="M92.6325 28.9872L90.7812 33.3888H89.9992L88.1479 28.9872H88.9459L90.3982 32.5168L91.8824 28.9872H92.6325Z" fill="white"/>
<path d="M97.0528 31.2129C97.0528 31.2738 97.0475 31.3541 97.0368 31.4538H93.6056C93.6534 31.8414 93.8157 32.1542 94.0923 32.3922C94.3743 32.6248 94.7227 32.7411 95.1377 32.7411C95.643 32.7411 96.05 32.5639 96.3585 32.2095L96.7815 32.7244C96.59 32.957 96.3506 33.1341 96.0633 33.256C95.7813 33.3778 95.4648 33.4387 95.1137 33.4387C94.6669 33.4387 94.2705 33.3445 93.9248 33.1563C93.579 32.9625 93.3103 32.694 93.1188 32.3507C92.9326 32.0074 92.8395 31.6199 92.8395 31.188C92.8395 30.7617 92.93 30.3769 93.1108 30.0336C93.297 29.6904 93.5497 29.4246 93.8689 29.2364C94.1934 29.0426 94.5578 28.9457 94.9621 28.9457C95.3664 28.9457 95.7255 29.0426 96.0394 29.2364C96.3585 29.4246 96.6059 29.6904 96.7815 30.0336C96.9623 30.3769 97.0528 30.77 97.0528 31.2129ZM94.9621 29.6184C94.595 29.6184 94.2865 29.7347 94.0365 29.9672C93.7918 30.1997 93.6481 30.5043 93.6056 30.8807H96.3186C96.2761 30.5098 96.1298 30.2081 95.8798 29.9755C95.6351 29.7374 95.3292 29.6184 94.9621 29.6184Z" fill="white"/>
<path d="M98.1165 27.2266H98.8825V33.3888H98.1165V27.2266Z" fill="white"/>
<path d="M102.157 33.4387C101.736 33.4387 101.359 33.3418 101.023 33.148C100.688 32.9542 100.425 32.6885 100.233 32.3507C100.047 32.0074 99.9542 31.6199 99.9542 31.188C99.9542 30.7562 100.047 30.3714 100.233 30.0336C100.425 29.6904 100.688 29.4246 101.023 29.2364C101.359 29.0426 101.736 28.9457 102.157 28.9457C102.577 28.9457 102.952 29.0426 103.282 29.2364C103.617 29.4246 103.878 29.6904 104.064 30.0336C104.255 30.3714 104.351 30.7562 104.351 31.188C104.351 31.6199 104.255 32.0074 104.064 32.3507C103.878 32.6885 103.617 32.9542 103.282 33.148C102.952 33.3418 102.577 33.4387 102.157 33.4387ZM102.157 32.7411C102.428 32.7411 102.67 32.6774 102.883 32.55C103.101 32.4172 103.271 32.2345 103.393 32.0019C103.516 31.7638 103.577 31.4925 103.577 31.188C103.577 30.8835 103.516 30.615 103.393 30.3825C103.271 30.1444 103.101 29.9617 102.883 29.8343C102.67 29.707 102.428 29.6433 102.157 29.6433C101.885 29.6433 101.641 29.707 101.422 29.8343C101.21 29.9617 101.039 30.1444 100.912 30.3825C100.789 30.615 100.728 30.8835 100.728 31.188C100.728 31.4925 100.789 31.7638 100.912 32.0019C101.039 32.2345 101.21 32.4172 101.422 32.55C101.641 32.6774 101.885 32.7411 102.157 32.7411Z" fill="white"/>
<path d="M107.653 28.9457C108.062 28.9457 108.429 29.0398 108.754 29.2281C109.078 29.4163 109.331 29.6793 109.512 30.017C109.698 30.3548 109.791 30.7451 109.791 31.188C109.791 31.631 109.698 32.0241 109.512 32.3673C109.331 32.7051 109.078 32.9681 108.754 33.1563C108.429 33.3445 108.062 33.4387 107.653 33.4387C107.349 33.4387 107.07 33.3778 106.815 33.256C106.565 33.1341 106.352 32.957 106.176 32.7244V35H105.41V28.9872H106.145V29.6848C106.315 29.4412 106.53 29.2585 106.791 29.1367C107.052 29.0094 107.339 28.9457 107.653 28.9457ZM107.589 32.7411C107.86 32.7411 108.102 32.6774 108.315 32.55C108.533 32.4172 108.703 32.2345 108.826 32.0019C108.953 31.7638 109.017 31.4925 109.017 31.188C109.017 30.8835 108.953 30.615 108.826 30.3825C108.703 30.1444 108.533 29.9617 108.315 29.8343C108.102 29.707 107.86 29.6433 107.589 29.6433C107.323 29.6433 107.081 29.7098 106.863 29.8426C106.65 29.97 106.48 30.1499 106.352 30.3825C106.23 30.615 106.168 30.8835 106.168 31.188C106.168 31.4925 106.23 31.7638 106.352 32.0019C106.474 32.2345 106.645 32.4172 106.863 32.55C107.081 32.6774 107.323 32.7411 107.589 32.7411Z" fill="white"/>
<path d="M116.14 28.9457C116.672 28.9457 117.092 29.1063 117.401 29.4274C117.715 29.7485 117.872 30.2247 117.872 30.8558V33.3888H117.106V30.9472C117.106 30.5209 117.01 30.1997 116.818 29.9838C116.632 29.7679 116.364 29.6599 116.012 29.6599C115.624 29.6599 115.316 29.7873 115.087 30.042C114.858 30.2911 114.744 30.651 114.744 31.1216V33.3888H113.978V30.9472C113.978 30.5209 113.882 30.1997 113.69 29.9838C113.504 29.7679 113.236 29.6599 112.884 29.6599C112.496 29.6599 112.188 29.7873 111.959 30.042C111.73 30.2911 111.616 30.651 111.616 31.1216V33.3888H110.85V28.9872H111.584V29.6433C111.738 29.4163 111.94 29.2447 112.19 29.1284C112.44 29.0066 112.725 28.9457 113.044 28.9457C113.374 28.9457 113.666 29.0149 113.922 29.1533C114.177 29.2917 114.374 29.4938 114.512 29.7596C114.672 29.5049 114.893 29.3056 115.175 29.1616C115.462 29.0177 115.784 28.9457 116.14 28.9457Z" fill="white"/>
<path d="M123.127 31.2129C123.127 31.2738 123.122 31.3541 123.111 31.4538H119.68C119.728 31.8414 119.89 32.1542 120.166 32.3922C120.448 32.6248 120.797 32.7411 121.212 32.7411C121.717 32.7411 122.124 32.5639 122.433 32.2095L122.856 32.7244C122.664 32.957 122.425 33.1341 122.137 33.256C121.855 33.3778 121.539 33.4387 121.188 33.4387C120.741 33.4387 120.345 33.3445 119.999 33.1563C119.653 32.9625 119.384 32.694 119.193 32.3507C119.007 32.0074 118.914 31.6199 118.914 31.188C118.914 30.7617 119.004 30.3769 119.185 30.0336C119.371 29.6904 119.624 29.4246 119.943 29.2364C120.267 29.0426 120.632 28.9457 121.036 28.9457C121.44 28.9457 121.8 29.0426 122.113 29.2364C122.433 29.4246 122.68 29.6904 122.856 30.0336C123.036 30.3769 123.127 30.77 123.127 31.2129ZM121.036 29.6184C120.669 29.6184 120.361 29.7347 120.111 29.9672C119.866 30.1997 119.722 30.5043 119.68 30.8807H122.393C122.35 30.5098 122.204 30.2081 121.954 29.9755C121.709 29.7374 121.403 29.6184 121.036 29.6184Z" fill="white"/>
<path d="M126.449 28.9457C126.986 28.9457 127.412 29.109 127.726 29.4357C128.045 29.7568 128.204 30.2302 128.204 30.8558V33.3888H127.438V30.9472C127.438 30.5209 127.34 30.1997 127.143 29.9838C126.946 29.7679 126.664 29.6599 126.297 29.6599C125.882 29.6599 125.555 29.7873 125.316 30.042C125.076 30.2911 124.957 30.651 124.957 31.1216V33.3888H124.191V28.9872H124.925V29.6516C125.079 29.4246 125.286 29.2502 125.547 29.1284C125.813 29.0066 126.114 28.9457 126.449 28.9457Z" fill="white"/>
<path d="M132 33.1314C131.888 33.231 131.75 33.3086 131.585 33.3639C131.42 33.4137 131.25 33.4387 131.074 33.4387C130.649 33.4387 130.319 33.3196 130.085 33.0816C129.851 32.8435 129.734 32.503 129.734 32.06V29.6433H129.016V28.9872H129.734V28.0239H130.5V28.9872H131.713V29.6433H130.5V32.0268C130.5 32.2649 130.556 32.4476 130.667 32.575C130.784 32.7023 130.949 32.766 131.162 32.766C131.396 32.766 131.596 32.6968 131.761 32.5583L132 33.1314Z" fill="white"/>
</svg>
